<svg id="DC-logo" xmlns="http://www.w3.org/2000/svg" width="158.171" height="18.878" viewBox="0 0 158.171 18.878">
  <g id="Group_1" data-name="Group 1" transform="translate(0 0.692)">
    <path id="Path_1" data-name="Path 1" d="M5.514,4.282c7.661,0,10.5,3.952,10.5,9.065,0,6.081-3.393,9.121-9.437,9.121H0V4.282Zm-1.8,14.759H6.627c3.844,0,5.646-1.714,5.646-5.694,0-3.123-1.564-5.638-6.177-5.638H3.711Z" transform="translate(0 -4.282)" fill="#fff"/>
    <path id="Path_2" data-name="Path 2" d="M126.09,14.674V19.1h8.455v3.372H122.686V4.282h11.362v3.4H126.09v4.008h7.617v2.985H126.09Z" transform="translate(-102.869 -4.282)" fill="#fff"/>
    <path id="Path_3" data-name="Path 3" d="M219.711,4.282h5.883c5.03,0,7.269,2.487,7.269,5.887a5.224,5.224,0,0,1-2.93,4.975l-.527.083,4.478,7.241h-3.812l-4.146-6.314h-2.609v6.314h-3.606Zm6.134,8.679c2.6,0,3.44-.8,3.44-2.709,0-1.548-.51-2.653-3.219-2.653h-2.749v5.362Z" transform="translate(-184.223 -4.282)" fill="#fff"/>
    <path id="Path_4" data-name="Path 4" d="M331.452,13.474c-.441-.746-1.709-2.542-1.709-2.542l-.14.2s-.013,1.866-.013,2.805v8.527h-3.426V4.282h3.281l6.072,9.9.347-.008,6.04-9.889h3.018V22.468h-3.447v-8.5c0-.94-.035-2.676-.035-2.676l0-.307s-1.376,1.957-1.816,2.7l-3.746,5.968h-.674Z" transform="translate(-273.482 -4.282)" fill="#fff"/>
    <path id="Path_5" data-name="Path 5" d="M472.576,4.282l7.365,18.186H476.37l-1.4-3.7h-7.626l-1.658,3.7h-3.6l7.628-18.186Zm-4.24,11.751h5.585L472.6,12.717c-.453-1.133-1.275-3.316-1.275-3.316h-.306s-1.045,2.2-1.473,3.366Z" transform="translate(-387.45 -4.282)" fill="#fff"/>
  </g>
  <path id="Path_6" data-name="Path 6" d="M604,3.748a9.519,9.519,0,0,0-6.033-2.182,7.8,7.8,0,0,0,0,15.609A9.518,9.518,0,0,0,604,14.993l.128.128v1.694a10.3,10.3,0,0,1-6.161,1.925,9.451,9.451,0,0,1-9.5-9.37,9.45,9.45,0,0,1,9.5-9.37,10.3,10.3,0,0,1,6.161,1.925V3.62Z" transform="translate(-493.421)" fill="#e84926"/>
  <path id="Path_7" data-name="Path 7" d="M717.6,2.384l.1.1V19.129h7.716l.1.128v1.258l-.1.1h-9.326l-.1-.1V2.486l.1-.1Z" transform="translate(-600.34 -1.999)" fill="#e84926"/>
  <path id="Path_8" data-name="Path 8" d="M793.961,2.008l.115.128.028,10.612c0,4.518,1.635,6.312,4.77,6.312,3.112,0,5.15-1.62,5.15-6.138l-.11-10.787.115-.128h1.393l.115.128.187,10.719c0,5.263-2.93,7.508-6.85,7.508s-6.67-2.413-6.67-7.676l-.016-10.551.115-.128h1.657Z" transform="translate(-664.233 -1.683)" fill="#e84926"/>
  <path id="Path_9" data-name="Path 9" d="M912.671,2.384c3.594,0,5.52,1.8,5.52,4.416a4.706,4.706,0,0,1-2.472,3.89c2.952.616,3.6,2.567,3.6,4.878,0,3.081-2.3,4.787-5.769,4.787H907.9l-.128-.128V2.512l.128-.128Zm-3.12,7.471h3.12c2.259,0,3.8-1.181,3.8-3.055,0-1.669-1.129-2.927-3.8-2.927h-3.12Zm0,9.011h4c2.593,0,4.313-1.566,4.313-3.825,0-2.208-1.72-3.7-4.313-3.7h-4Z" transform="translate(-761.147 -1.999)" fill="#e84926"/>
</svg>
