<?xml version="1.0" encoding="UTF-8"?>
<svg id="Layer_2" data-name="Layer 2" xmlns="http://www.w3.org/2000/svg" viewBox="0 0 435.99 108.56">
  <defs>
    <style>
      .cls-1 {
        fill: #fff;
      }
    </style>
  </defs>
  <g id="Ebene_1" data-name="Ebene 1">
    <g>
      <path class="cls-1" d="m354.95,98.83c-3.71,0-6.36-2.96-6.36-6.71s2.65-6.71,6.36-6.71c2.73,0,4.85,1.29,5.95,3.07v7.27c-1.1,1.78-3.22,3.07-5.95,3.07m5.95,2.77h3.26v-26.9h-3.26v9.85c-1.59-1.44-3.71-2.2-6.02-2.2-5.57,0-9.66,4.28-9.66,9.77s4.09,9.77,9.66,9.77c2.31,0,4.43-.76,6.02-2.2v1.89Zm-38.05,0h3.26v-12.24c.68-2.46,2.5-3.94,5.15-3.94,2.96,0,4.77,2.05,4.77,4.81v11.37h3.26v-11.56c0-4.7-3.03-7.69-7.31-7.69-2.2,0-4.43.64-5.87,2.46v-2.16h-3.26v18.94Zm-16.64-2.77c-3.71,0-6.36-2.96-6.36-6.71s2.65-6.71,6.36-6.71c2.73,0,4.85,1.29,5.95,3.07v7.27c-1.1,1.78-3.22,3.07-5.95,3.07m5.95,2.77h3.26v-18.94h-3.26v1.89c-1.59-1.44-3.71-2.2-6.02-2.2-5.57,0-9.66,4.28-9.66,9.77s4.09,9.77,9.66,9.77c2.31,0,4.43-.76,6.02-2.2v1.89Zm-29.24,0h3.26v-12.88c.83-1.97,2.69-2.99,4.74-2.99.68,0,1.29.08,1.82.23v-3.37c-.42-.08-.87-.11-1.33-.11-2.12,0-3.94.8-5.23,2.42v-2.24h-3.26v18.94Zm-15.93-16.18c3.71,0,6.36,2.96,6.36,6.71s-2.65,6.71-6.36,6.71c-2.73,0-4.89-1.29-5.95-3.07v-7.27c1.06-1.78,3.22-3.07,5.95-3.07m-9.21,16.18h3.26v-1.89c1.55,1.44,3.68,2.2,6.02,2.2,5.57,0,9.66-4.28,9.66-9.77s-4.09-9.77-9.66-9.77c-2.35,0-4.47.76-6.02,2.2v-9.85h-3.26v26.9Zm-26.94,0h3.26v-12.88c.83-1.97,2.69-2.99,4.74-2.99.68,0,1.29.08,1.82.23v-3.37c-.42-.08-.87-.11-1.33-.11-2.12,0-3.94.8-5.23,2.42v-2.24h-3.26v18.94Zm-10.69,0h3.26v-18.94h-3.26v12.39c-.76,2.39-2.54,3.79-5.15,3.79-2.92,0-4.74-2.05-4.74-4.81v-11.37h-3.26v11.56c0,4.7,2.99,7.69,7.31,7.69,2.2,0,4.36-.61,5.83-2.42v2.12Zm-28.72-2.77c-3.86,0-6.48-2.96-6.48-6.71s2.61-6.71,6.48-6.71,6.44,2.96,6.44,6.71-2.58,6.71-6.44,6.71m0,3.07c5.68,0,9.81-4.32,9.81-9.77s-4.13-9.77-9.81-9.77-9.85,4.32-9.85,9.77,4.13,9.77,9.85,9.77m-27.7,6.67h3.45l11.63-25.91h-3.52l-5.95,13.79-5.91-13.79h-3.52l7.73,17.35-3.9,8.56Zm-28.3-23.22c2.88-.04,5.3,1.63,5.76,4.74h-11.56c.68-2.88,3.03-4.74,5.8-4.74m.42,16.56c3.3,0,5.99-1.36,7.62-3.07l-2.08-2.27c-1.21,1.21-3.14,2.27-5.53,2.27-3.45,0-6.06-2.54-6.36-5.91h15.38c-.08-6.74-3.94-10.57-9.24-10.57s-9.51,4.28-9.51,9.77,4.13,9.77,9.74,9.77m-22.33,0l10.04-19.25h-3.68l-6.36,12.77-6.33-12.77h-3.68l10,19.25Zm-22.39-3.07c-3.86,0-6.48-2.96-6.48-6.71s2.61-6.71,6.48-6.71,6.44,2.96,6.44,6.71-2.58,6.71-6.44,6.71m0,3.07c5.68,0,9.81-4.32,9.81-9.77s-4.13-9.77-9.81-9.77-9.85,4.32-9.85,9.77,4.13,9.77,9.85,9.77m-19.3-.3h3.26v-26.9h-3.26v26.9Z"/>
      <g>
        <path class="cls-1" d="m178.76,30.65c8.07-1.47,12.71-6.83,12.71-14.72,0-9.73-6.57-15.53-17.56-15.53h-18.27v7.63h18.27c5.37,0,8.45,2.9,8.45,7.97s-3.16,8.13-8.45,8.13h-9.39V8.04l-8.88,8.71v30.99h8.88v-17.77l17.09,17.77h10.77l-16.28-16.6,2.67-.48Z"/>
        <rect class="cls-1" x="386.95" y="20.61" width="8.88" height="27.13"/>
        <polygon class="cls-1" points="411.51 24.05 386.95 0 386.95 11.92 411.5 35.96 427.11 20.51 427.11 47.74 435.99 47.74 435.99 0 411.51 24.05"/>
        <path class="cls-1" d="m215.95,10.14l4.76,8.94h-9.85l-14.6,28.66h9.91l3.11-6.09h23.38l3.27,6.09h10.08L221.07.23l-5.12,9.92Zm-3.09,24.64l7.85-15.7,8.36,15.7h-16.21Z"/>
        <polygon class="cls-1" points="307.42 10.15 320.53 34.79 304.32 34.79 312.23 19.19 302.38 19.19 287.73 47.74 297.64 47.74 300.75 41.66 324.13 41.66 327.39 47.74 337.47 47.74 312.54 .23 307.42 10.15"/>
        <polygon class="cls-1" points="0 28.9 0 47.74 8.88 47.74 8.88 27.58 27.21 27.58 27.21 20.03 8.88 20.03 0 28.9"/>
        <polygon class="cls-1" points="0 20.03 8.88 20.03 8.88 8.03 31.33 8.03 31.33 .41 0 .41 0 20.03"/>
        <polygon class="cls-1" points="123.8 27.43 142.05 27.43 142.05 20.03 123.8 20.03 123.8 8.03 146.64 8.03 146.64 .41 114.92 .41 114.92 20.03 123.8 20.03 114.9 28.7 114.92 47.74 147.57 47.74 147.57 40.11 123.8 40.11 123.8 27.43"/>
        <polygon class="cls-1" points="86.83 18.34 73.99 .4 64.51 .4 77.32 18.34 86.83 18.34 82.45 24.41 82.45 47.74 91.33 47.74 91.33 25.96 109.36 .4 99.75 .4 86.83 18.34"/>
        <path class="cls-1" d="m365.98,30.65c8.07-1.47,12.7-6.83,12.7-14.72,0-9.73-6.57-15.53-17.56-15.53h-18.27v7.63h18.27c5.37,0,8.45,2.9,8.45,7.97s-3.16,8.13-8.45,8.13h-9.39V8.04l-8.88,8.71v30.99h8.88v-17.77l17.09,17.77h10.77l-16.28-16.6,2.67-.48Z"/>
        <polygon class="cls-1" points="259.81 .32 250.93 .32 250.93 47.65 281.71 47.65 285.56 40.1 259.81 40.1 259.81 .32"/>
        <polygon class="cls-1" points="48.04 .32 39.16 .32 39.16 47.65 69.94 47.65 73.79 40.1 48.04 40.1 48.04 .32"/>
      </g>
    </g>
  </g>
</svg>