<svg xmlns="http://www.w3.org/2000/svg" width="94" height="16.154" viewBox="0 0 94 16.154"><g transform="translate(-0.101 -0.4)"><g transform="translate(0.101 0.4)"><g transform="translate(0 0)"><g transform="translate(0 0)"><g transform="translate(0 0)"><g transform="translate(0 0)"><path d="M17.2,14.824l-.962.918-.962-.918-.466-1.407-1.428-.49v-.918h-.931l-.5,2.325.5,1.407-2.2.948L9.6,15.741l.466-.918v-.948H8.636L6.743,15.741l-1.428-.459V13.416l-2.359-.367-1.831.887L.1,13.416v-1.9l.931-.459L4.85,9.194l.466.459L6.743,8.246V7.3L8.636,5.431,9.6,3.565l1.428-2.356L13.384.75h.962v.918l1.893,1.9V5.431l2.855,2.815,2.855,1.866,1.428.49.466,1.407,1.893.918-.962.948h-.931v-.948l-1.428-.459-2.39-2.356-1.893-.918L16.239,6.379l-.962-.948.5-1.407L14.346,2.616l-.962.948V5.431l-.931.948,1.893,1.866-.962.948,1.893,1.866v.948l.962,1.866H17.2l.931-.948-.465-.459L17.2,11.06h.931l.962,1.866.931.948Z" transform="translate(-0.101 -0.536)" fill="#fff"/><g transform="translate(29.885)"><path d="M.254,13.739V1.654L2.829.4V13.77Z" transform="translate(-0.254 -0.4)" fill="#fff"/><path d="M16.536,15.971H13.96v-5.2c0-1.713-.59-2.233-1.645-2.233s-1.676.52-1.676,2.172v5.262H8.064V6.364H10.64v.642a3.226,3.226,0,0,1,2.3-.857c2.483,0,3.6,1.683,3.6,4.406v5.415Z" transform="translate(-3.285 -2.632)" fill="#fff"/><path d="M32.962,6.5l-3.507,9.607H26.817L23.279,6.5H26.1l1.428,4.467c.248.734.5,1.652.621,2.111.124-.49.372-1.346.621-2.111L30.2,6.5Z" transform="translate(-9.19 -2.767)" fill="#fff"/><path d="M44.634,16.185a4.683,4.683,0,0,1-4.872-5.018A4.742,4.742,0,0,1,44.417,6.15c2.731,0,4.438,2.264,4.438,5.018a6.313,6.313,0,0,1-.031.8H42.4a2.141,2.141,0,0,0,2.265,1.805,2.242,2.242,0,0,0,1.8-.857l1.955,1.407A4.7,4.7,0,0,1,44.634,16.185ZM46.279,10.1a1.871,1.871,0,0,0-1.986-1.713A2,2,0,0,0,42.4,10.1Z" transform="translate(-15.587 -2.632)" fill="#fff"/><path d="M60.993,14.013c.962,0,1.552-.4,1.552-.857,0-.673-1.024-.8-1.521-.887-1.924-.367-4.158-.7-4.158-3.151,0-1.805,1.893-2.968,4.065-2.968a7.235,7.235,0,0,1,3.6,1.132l-1.3,1.744a6.2,6.2,0,0,0-2.327-.7c-1.117,0-1.521.275-1.521.673,0,.673,1.4.8,2.141.979,1.8.428,3.569.918,3.569,3.09,0,2.019-2.11,3.121-4.189,3.121a7.839,7.839,0,0,1-4.1-1.346l1.272-1.713A5.928,5.928,0,0,0,60.993,14.013Z" transform="translate(-22.201 -2.632)" fill="#fff"/><path d="M77.158,8.6a2.5,2.5,0,0,0-2.483,2.57,2.48,2.48,0,0,0,2.483,2.57,2.447,2.447,0,0,0,2.079-1.132l2.048,1.469a5.12,5.12,0,0,1-4.127,2.08,5,5,0,1,1,0-10,5.122,5.122,0,0,1,4.158,2.111l-2.048,1.5A2.419,2.419,0,0,0,77.158,8.6Z" transform="translate(-28.126 -2.632)" fill="#fff"/><path d="M98.579,11.217A5.09,5.09,0,1,1,93.489,6.2,5.031,5.031,0,0,1,98.579,11.217Zm-2.607,0a2.484,2.484,0,1,0-4.965,0,2.484,2.484,0,1,0,4.965,0Z" transform="translate(-34.464 -2.651)" fill="#fff"/></g></g></g></g></g></g></g></svg>